<?xml version="1.0" standalone="no"?>
<!DOCTYPE svg PUBLIC "-//W3C//DTD SVG 20010904//EN"
 "http://www.w3.org/TR/2001/REC-SVG-20010904/DTD/svg10.dtd">
<svg version="1.0" xmlns="http://www.w3.org/2000/svg"
 width="1280.000000pt" height="729.000000pt" viewBox="0 0 1280.000000 729.000000"
 preserveAspectRatio="xMidYMid meet">
<metadata>
Created by potrace 1.15, written by Peter Selinger 2001-2017
</metadata>
<g transform="translate(0.000000,729.000000) scale(0.100000,-0.100000)"
fill="#673ab7" stroke="none">
<path d="M8170 7275 c-74 -18 -237 -42 -385 -56 -78 -8 -383 -13 -870 -14
-796 -2 -868 -6 -1142 -55 -214 -39 -435 -113 -593 -198 -245 -133 -465 -342
-624 -596 l-54 -85 -63 55 c-151 132 -394 271 -585 338 -197 67 -290 81 -554
81 -257 0 -337 -11 -575 -76 -355 -98 -814 -325 -1267 -626 -235 -157 -352
-241 -818 -584 -86 -63 -177 -125 -203 -138 -119 -60 -195 -216 -232 -475 -4
-29 -10 -44 -14 -37 -6 10 -12 9 -25 -4 -23 -23 -23 -145 0 -145 11 0 14 -5
10 -16 -3 -9 -6 -20 -6 -25 0 -6 -4 -8 -9 -5 -5 3 -14 0 -20 -8 -6 -8 -33 -17
-59 -21 -53 -8 -82 -28 -82 -59 0 -25 357 -673 982 -1781 655 -1164 940 -1679
1086 -1970 72 -143 163 -316 203 -385 73 -128 213 -332 252 -368 l22 -20 210
115 c633 347 1426 718 2535 1188 217 92 517 225 665 297 375 181 504 233 663
268 114 26 261 25 427 0 185 -29 297 -35 395 -21 195 29 355 96 550 231 351
242 407 275 555 323 161 53 306 79 670 122 121 14 443 57 715 95 1023 143
1693 228 2403 305 230 25 420 45 422 45 1 0 3 33 3 73 0 39 9 121 21 180 12
59 21 135 21 167 l0 59 -162 142 c-300 262 -513 424 -542 413 -9 -3 -16 -1
-16 5 0 6 6 11 14 11 11 0 12 8 6 33 -9 42 4 154 25 204 41 97 39 167 -5 156
-14 -4 -32 8 -64 41 -46 47 -96 63 -96 31 0 -8 -4 -15 -9 -15 -5 0 -96 70
-202 156 -496 401 -977 769 -1974 1513 -721 537 -959 717 -1312 988 -116 90
-217 163 -225 162 -7 0 -38 -7 -68 -14z m240 -171 c96 -75 684 -518 1305 -984
1169 -876 1453 -1093 1908 -1458 180 -144 267 -220 267 -233 0 -10 5 -19 12
-19 7 0 8 -3 3 -9 -6 -5 -62 -16 -125 -25 -268 -37 -578 -57 -1225 -76 -577
-18 -870 -38 -1155 -81 -572 -86 -1015 -263 -1366 -544 -156 -125 -337 -318
-434 -462 -19 -29 -37 -53 -40 -53 -20 -1 -77 49 -124 109 -60 74 -82 91 -132
100 -46 9 -387 361 -1614 1671 -453 484 -992 1050 -1089 1145 -28 27 -51 53
-51 57 0 4 19 38 41 75 271 443 680 702 1249 792 258 41 341 45 1105 46 854 1
959 8 1285 83 3 1 84 -60 180 -134z m-4845 -419 c182 -30 362 -91 520 -177
181 -99 287 -180 442 -340 316 -326 507 -526 992 -1043 1131 -1206 1278 -1360
1600 -1687 122 -124 153 -160 143 -170 -7 -7 -12 -19 -12 -28 0 -8 -10 -24
-21 -34 -20 -17 -29 -17 -133 -6 -139 16 -475 16 -621 1 -513 -54 -1010 -213
-1626 -521 -297 -149 -490 -257 -1019 -570 -146 -86 -330 -195 -410 -242 -298
-175 -686 -386 -693 -377 -17 20 -258 422 -399 664 -195 334 -363 631 -743
1310 -472 842 -838 1468 -1062 1812 -14 21 -7 27 199 180 735 547 1167 822
1588 1009 231 102 513 188 721 218 129 19 421 19 534 1z m-2973 -1625 c262
-422 502 -836 978 -1685 525 -937 788 -1395 1007 -1750 l105 -170 -11 -140
c-6 -77 -19 -220 -28 -319 -15 -169 -18 -180 -42 -202 -26 -24 -26 -26 -23
-147 2 -74 -1 -118 -6 -112 -10 11 -393 675 -854 1480 -671 1171 -1463 2595
-1449 2604 19 12 29 57 24 108 -3 29 -9 50 -14 47 -12 -7 -11 7 7 111 19 112
57 228 91 279 31 48 85 98 94 88 3 -4 58 -90 121 -192z m11371 -896 c-5 -164
1 -190 38 -179 11 4 19 2 19 -4 0 -6 -5 -11 -12 -11 -16 0 -3 -165 22 -270 12
-47 36 -132 54 -190 39 -121 60 -209 53 -216 -2 -3 -335 -9 -738 -14 -656 -9
-1044 -20 -1224 -35 -367 -31 -551 -55 -774 -101 -538 -111 -951 -329 -1194
-633 l-50 -63 -19 35 c-10 20 -33 79 -52 132 -59 166 -99 199 -236 199 -71 0
-103 -6 -195 -37 -141 -46 -185 -54 -185 -35 0 39 33 114 77 180 59 86 88 141
97 183 15 71 250 341 416 480 326 271 737 443 1275 535 315 53 569 72 1280 95
756 24 1034 45 1346 104 4 0 5 -69 2 -155z m-4923 -1024 c168 -15 180 -18 180
-45 0 -33 19 -43 83 -47 l57 -3 -106 -180 c-59 -99 -119 -207 -134 -240 -56
-123 -90 -282 -90 -424 l0 -68 -202 -7 c-971 -34 -1703 -270 -2683 -864 -77
-47 -282 -176 -455 -287 -633 -406 -1003 -627 -1008 -602 -1 7 9 60 23 117 30
125 34 254 9 268 -13 7 -14 19 -5 88 10 73 51 528 51 566 0 11 45 40 137 89
190 100 454 250 748 424 710 421 886 521 1220 690 615 311 1126 474 1646 524
123 12 397 12 529 1z"/>
</g>
</svg>
